<svg width="1200" height="675" viewBox="0 0 1200 675" fill="none" xmlns="http://www.w3.org/2000/svg">
  <defs>
    <linearGradient id="trackpal-page" x1="0" y1="0" x2="1200" y2="675" gradientUnits="userSpaceOnUse">
      <stop stop-color="#F7FAF7"/>
      <stop offset="1" stop-color="#EFF7F2"/>
    </linearGradient>
    <linearGradient id="trackpal-tile" x1="0" y1="0" x2="1" y2="1">
      <stop stop-color="#FFFFFF"/>
      <stop offset="1" stop-color="#F7FBF8"/>
    </linearGradient>
  </defs>

  <rect width="1200" height="675" rx="36" fill="url(#trackpal-page)"/>
  <rect x="28" y="28" width="1144" height="619" rx="28" fill="#FFFFFF" stroke="#DCEBDF"/>

  <rect x="28" y="28" width="1144" height="66" rx="28" fill="#FFFFFF"/>
  <text x="74" y="74" fill="#20242F" font-family="Segoe UI, Arial, sans-serif" font-size="32" font-weight="700">trackpal.app</text>

  <rect x="28" y="94" width="186" height="553" rx="0" fill="#FFFFFF"/>
  <rect x="44" y="132" width="154" height="44" rx="14" fill="#10B159"/>
  <text x="68" y="160" fill="#FFFFFF" font-family="Segoe UI, Arial, sans-serif" font-size="18" font-weight="700">KONTROLNA TABLA</text>
  <text x="68" y="226" fill="#607184" font-family="Segoe UI, Arial, sans-serif" font-size="16" font-weight="600">PRACENJE PALETA</text>
  <text x="68" y="282" fill="#607184" font-family="Segoe UI, Arial, sans-serif" font-size="16" font-weight="600">KALENDAR NAPLATE</text>
  <text x="68" y="338" fill="#607184" font-family="Segoe UI, Arial, sans-serif" font-size="16" font-weight="600">KLIJENTI</text>
  <text x="68" y="394" fill="#607184" font-family="Segoe UI, Arial, sans-serif" font-size="16" font-weight="600">ULOGE</text>
  <rect x="44" y="560" width="154" height="44" rx="14" fill="#10B159"/>
  <text x="86" y="588" fill="#FFFFFF" font-family="Segoe UI, Arial, sans-serif" font-size="18" font-weight="700">QR SCAN</text>

  <rect x="234" y="120" width="194" height="112" rx="20" fill="url(#trackpal-tile)" stroke="#D8ECD9"/>
  <text x="262" y="160" fill="#6E8B75" font-family="Segoe UI, Arial, sans-serif" font-size="15" font-weight="700">UKUPNO PALETA</text>
  <text x="262" y="205" fill="#075F48" font-family="Segoe UI, Arial, sans-serif" font-size="48" font-weight="800">5</text>
  <rect x="442" y="120" width="194" height="112" rx="20" fill="#F7F9FF" stroke="#D9E0FF"/>
  <text x="470" y="160" fill="#7D84BD" font-family="Segoe UI, Arial, sans-serif" font-size="15" font-weight="700">U TRANSPORTU</text>
  <text x="470" y="205" fill="#2C3084" font-family="Segoe UI, Arial, sans-serif" font-size="48" font-weight="800">1</text>
  <rect x="650" y="120" width="194" height="112" rx="20" fill="#FFF7F7" stroke="#F2D7D7"/>
  <text x="678" y="160" fill="#C26B78" font-family="Segoe UI, Arial, sans-serif" font-size="15" font-weight="700">KASNJENJE</text>
  <text x="678" y="205" fill="#A2073A" font-family="Segoe UI, Arial, sans-serif" font-size="48" font-weight="800">2</text>
  <rect x="858" y="120" width="278" height="112" rx="20" fill="#F5FFFA" stroke="#D4F0DF"/>
  <text x="886" y="160" fill="#6E8B75" font-family="Segoe UI, Arial, sans-serif" font-size="15" font-weight="700">UKUPNA NAPLATA</text>
  <text x="886" y="205" fill="#00615E" font-family="Segoe UI, Arial, sans-serif" font-size="48" font-weight="800">EUR 85</text>

  <rect x="234" y="262" width="618" height="250" rx="24" fill="#FFFFFF" stroke="#DCE7DE"/>
  <text x="268" y="304" fill="#0D563A" font-family="Segoe UI, Arial, sans-serif" font-size="22" font-weight="800">NAPLATA PRIHODA</text>
  <rect x="268" y="332" width="550" height="42" rx="12" fill="#FFF1F2"/>
  <text x="292" y="360" fill="#C9164B" font-family="Segoe UI, Arial, sans-serif" font-size="17" font-weight="700">AKCIJA POTREBNA (2)</text>
  <text x="268" y="418" fill="#A4ACBB" font-family="Segoe UI, Arial, sans-serif" font-size="15" font-weight="700">QR KOD</text>
  <text x="414" y="418" fill="#A4ACBB" font-family="Segoe UI, Arial, sans-serif" font-size="15" font-weight="700">KLIJENT</text>
  <text x="626" y="418" fill="#A4ACBB" font-family="Segoe UI, Arial, sans-serif" font-size="15" font-weight="700">FAKTURA</text>
  <text x="268" y="474" fill="#005A58" font-family="Segoe UI, Arial, sans-serif" font-size="18" font-weight="700">PAL-0001</text>
  <text x="414" y="474" fill="#056346" font-family="Segoe UI, Arial, sans-serif" font-size="18" font-weight="700">AutoNL Eindhoven</text>
  <rect x="626" y="444" width="156" height="38" rx="12" fill="#F7FBF8" stroke="#DCEBDF"/>
  <text x="652" y="469" fill="#1E7E48" font-family="Segoe UI, Arial, sans-serif" font-size="16" font-weight="700">PREGLED FAKTURE</text>
  <rect x="268" y="520" width="516" height="2" fill="#EFF3F0"/>
  <text x="268" y="566" fill="#005A58" font-family="Segoe UI, Arial, sans-serif" font-size="18" font-weight="700">PAL-0022</text>
  <text x="414" y="566" fill="#056346" font-family="Segoe UI, Arial, sans-serif" font-size="18" font-weight="700">Hanson Logistics</text>
  <rect x="626" y="536" width="156" height="38" rx="12" fill="#10B159"/>
  <text x="662" y="561" fill="#FFFFFF" font-family="Segoe UI, Arial, sans-serif" font-size="16" font-weight="700">POSALJI FAKTURU</text>

  <rect x="874" y="262" width="262" height="344" rx="24" fill="#FFFFFF" stroke="#DCE7DE"/>
  <text x="908" y="304" fill="#0D563A" font-family="Segoe UI, Arial, sans-serif" font-size="22" font-weight="800">BRZA ANALIZA</text>
  <text x="908" y="356" fill="#98A2B3" font-family="Segoe UI, Arial, sans-serif" font-size="16" font-weight="700">STOPA ISPORUKE</text>
  <text x="1038" y="356" fill="#006D4F" font-family="Segoe UI, Arial, sans-serif" font-size="18" font-weight="800">84.2%</text>
  <rect x="908" y="386" width="182" height="12" rx="6" fill="#E6EBE8"/>
  <rect x="908" y="386" width="144" height="12" rx="6" fill="#169A55"/>
  <rect x="908" y="430" width="194" height="82" rx="18" fill="#EEF5FF" stroke="#D8E4FF"/>
  <text x="934" y="466" fill="#2A58D1" font-family="Segoe UI, Arial, sans-serif" font-size="17" font-weight="700">LOGISTICKA BILJESKA</text>
  <text x="934" y="500" fill="#2A58D1" font-family="Segoe UI, Arial, sans-serif" font-size="16">8 units ready for pickup</text>
  <rect x="908" y="536" width="194" height="70" rx="18" fill="#FFF9E8" stroke="#F6E1A5"/>
  <text x="934" y="572" fill="#C05F00" font-family="Segoe UI, Arial, sans-serif" font-size="17" font-weight="700">UPOZORENJE O KASNJENJU</text>
</svg>
